<?xml version="1.0" encoding="utf-8"?>
<!-- Generator: Adobe Illustrator 22.0.1, SVG Export Plug-In . SVG Version: 6.00 Build 0)  -->
<svg version="1.1" id="Layer_1" xmlns="http://www.w3.org/2000/svg" xmlns:xlink="http://www.w3.org/1999/xlink" x="0px" y="0px"
	 viewBox="0 0 17 16" style="enable-background:new 0 0 17 16;" xml:space="preserve">
<path id="Arrow" d="M0.2,7.7c-0.1,0.2-0.1,0.4,0,0.6c0,0.1,0.1,0.1,0.1,0.2c0,0,0,0.1,0.1,0.1l6.8,6.9c0.3,0.3,0.8,0.3,1.2,0
	c0.3-0.3,0.3-0.8,0-1.2L2.9,8.8h13.2c0.5,0,0.8-0.4,0.8-0.8c0-0.5-0.4-0.8-0.8-0.8H2.9l5.4-5.5c0.3-0.3,0.3-0.8,0-1.2
	C8.1,0.4,7.9,0.3,7.7,0.3c-0.2,0-0.4,0.1-0.6,0.2L0.3,7.4c0,0,0,0.1-0.1,0.1C0.2,7.6,0.2,7.6,0.2,7.7"/>
</svg>
