<?xml version="1.0" encoding="utf-8"?>
<!-- Generator: Adobe Illustrator 22.0.1, SVG Export Plug-In . SVG Version: 6.00 Build 0)  -->
<svg version="1.1" id="Layer_1" xmlns="http://www.w3.org/2000/svg" xmlns:xlink="http://www.w3.org/1999/xlink" x="0px" y="0px"
	 viewBox="0 0 36 36" style="enable-background:new 0 0 36 36;" xml:space="preserve">
<style type="text/css">
	.st0{fill:none;stroke:#000000;stroke-width:0.75;stroke-miterlimit:10;}
</style>
<g>
	<rect x="1.7" y="16" transform="matrix(8.360135e-03 -1 1 8.360135e-03 -16.0638 20.1001)" width="0.8" height="4.2"/>
	<rect x="33.5" y="16" transform="matrix(7.812262e-03 -1 1 7.812262e-03 15.4838 51.9041)" width="0.8" height="4.2"/>
	<rect x="15.9" y="33.5" transform="matrix(7.812262e-03 -1 1 7.812262e-03 -16.0656 51.6033)" width="4.2" height="0.8"/>
	<rect x="15.9" y="1.7" transform="matrix(7.812262e-03 -1 1 7.812262e-03 15.7283 20.0568)" width="4.2" height="0.8"/>
	<path d="M9.6,32.1l-0.4,0.6c0.2,0.1,0.4,0.3,0.6,0.4l0.4-0.6l1.4-2.3l-0.6-0.4L9.6,32.1z"/>
	<polygon points="26.4,3 26,3.6 24.7,5.9 25.3,6.3 26.7,4 27.1,3.4 27.5,2.7 26.8,2.3 	"/>
	<path d="M30.1,24.6l-0.4,0.6l2.3,1.3l0.6,0.4c0.1-0.2,0.3-0.4,0.4-0.6l-0.6-0.4L30.1,24.6z"/>
	<path d="M5.8,11.5l0.4-0.6L3.9,9.5L3.3,9.1C3.1,9.3,3,9.5,2.9,9.7l0.6,0.4L5.8,11.5z"/>
	<path d="M3.6,26L3,26.4c0.1,0.2,0.3,0.4,0.4,0.6L4,26.7l2.3-1.3L6,24.7L3.6,26z"/>
	<polygon points="32.5,10.2 33.2,9.9 33.9,9.5 33.5,8.8 32.8,9.2 32.1,9.6 29.8,10.9 30.2,11.5 	"/>
	<path d="M25.2,29.8l-0.7,0.4l1.3,2.3l0.4,0.7c0.2-0.1,0.4-0.3,0.6-0.4l-0.4-0.7L25.2,29.8z"/>
	<path d="M10.7,6.3l0.7-0.4l-1.3-2.3L9.7,2.9C9.5,3,9.3,3.2,9.1,3.3l0.4,0.7L10.7,6.3z"/>
</g>
<line class="st0" x1="18" y1="16.5" x2="18" y2="12.7"/>
<line class="st0" x1="19.5" y1="18.4" x2="27.1" y2="18.1"/>
<circle class="st0" cx="18" cy="18.5" r="1.8"/>
</svg>
