<?xml version="1.0" encoding="UTF-8"?>
<svg width="53px" height="48px" viewBox="0 0 53 48" version="1.1" xmlns="http://www.w3.org/2000/svg" xmlns:xlink="http://www.w3.org/1999/xlink">
    <!-- Generator: sketchtool 52.4 (67378) - http://www.bohemiancoding.com/sketch -->
    <title>C7A1CD77-8DC9-4777-BFC5-23111D436912</title>
    <desc>Created with sketchtool.</desc>
    <g id="Desktop_OK" stroke="none" stroke-width="1" fill="none" fill-rule="evenodd">
        <g id="1_HOME_FR-l" transform="translate(-693.000000, -3017.000000)" fill="#607EF5">
            <g id="Group-11" transform="translate(673.000000, 2994.000000)">
                <g id="Get-serious" transform="translate(20.000000, 23.000000)">
                    <path d="M51.0096729,32.7636134 C50.9131481,33.2381137 50.5062461,33.6352834 50.0180052,33.7301422 C49.5655452,33.8196394 49.1251507,33.6891054 48.8153975,33.3735968 C47.8382918,32.3786104 46.5558015,31.928031 45.2880812,32.1427006 C42.8622711,32.5505935 39.0322745,33.1055175 34.5334692,33.4445347 C34.0479327,32.5258477 33.9366379,31.5982936 33.9366379,30.8000361 C33.9366379,29.6602869 34.2413984,28.4436196 34.4604515,27.7163 C35.7660328,27.5921587 36.7878645,26.5260282 37.6312085,24.4333604 C38.5444497,22.167266 37.8926992,20.7326296 37.1207087,20.0098468 C37.8409003,15.5966439 37.1660587,12.1190375 35.1109538,9.66570003 C32.273249,6.27800333 27.8025274,6.01446081 26.4996504,6.01446081 C25.1967734,6.01446081 20.7262598,6.27800333 17.888347,9.66570003 C15.8332421,12.1190375 15.1584005,15.5966439 15.8785921,20.0098468 C15.1068096,20.7326296 14.4548511,22.167266 15.3680923,24.4333604 C16.2116443,26.5266468 17.2341001,27.5927773 18.5394734,27.7163 C18.7587345,28.4415574 19.0628709,29.6547191 19.0628709,30.8000361 C19.0628709,31.6009744 18.950536,32.5322404 18.460631,33.4542268 C13.9622417,33.1211899 10.1272524,32.5697715 7.69665769,32.1631159 C6.44037888,31.9546327 5.15726451,32.3969635 4.17828652,33.3791646 C3.86645311,33.69158 3.42626666,33.8188145 2.97567883,33.7291111 C2.49908755,33.6340461 2.09509791,33.2463622 1.99420451,32.7856784 C1.90017602,32.360051 2.01583938,31.941435 2.31103058,31.6354122 C3.25755626,30.6560982 3.69337413,29.4012811 3.50656532,28.1932748 C3.12649886,25.7267396 2.6734147,21.9942518 2.6734147,18.2240266 C2.6734147,14.4045161 3.13794038,10.4035366 3.52778414,7.7198572 C3.70419157,6.5104074 3.26005259,5.25373442 2.31040649,4.27194577 C2.01583938,3.96654165 1.90017602,3.54771939 1.99420451,3.12167962 C2.09634607,2.6546031 2.50865682,2.26526956 2.99606554,2.17453505 C3.39235816,2.10050394 3.78074573,2.19495032 4.0817617,2.44178943 C5.04992225,3.23860341 6.2710444,3.56813466 7.4233094,3.34769104 C10.7760906,2.70863138 16.7949538,1.94584284 26.4299612,1.94584284 C36.1571247,1.94584284 42.2021994,2.72121048 45.5614295,3.37243681 C46.6995486,3.589581 47.9258714,3.25283223 48.9175391,2.44117078 C49.2173069,2.19660003 49.6007018,2.10112258 49.9967864,2.17329776 C50.4958447,2.26382606 50.912524,2.66347034 51.010297,3.14560054 C51.0985007,3.58071376 50.9680674,4.00324788 50.6524895,4.30349663 C49.6383548,5.26693217 49.1596833,6.5326786 49.3400432,7.77471033 C49.7259344,10.4410677 50.1860916,14.4177139 50.1860916,18.2240266 C50.1860916,21.9754862 49.737376,25.684878 49.3616781,28.136772 C49.1707087,29.3783913 49.6408512,30.6422818 50.6524895,31.60448 C50.9688995,31.9047288 51.0991248,32.3272629 51.0096729,32.7636134 M48.3392223,46.0539509 L4.66007849,46.0539509 C5.03078371,41.785717 7.94005001,40.2459111 13.0184203,39.00058 C18.3318619,37.6975087 21.0258196,34.9389733 21.0258196,30.8000361 C21.0258196,28.6677751 20.1914208,26.4590084 20.15564,26.3657993 C19.9863055,25.920994 19.515331,25.6615757 19.0474769,25.7558159 C18.7612309,25.8141747 18.0901338,25.9432652 17.1906223,23.7111962 C16.4479637,21.8676359 17.2767458,21.3725141 17.3470591,21.3343644 C17.7643625,21.152483 18.0002658,20.7091211 17.9164307,20.2651407 C17.1413198,16.1558984 17.640378,13.0076171 19.3982115,10.9091753 C21.7493396,8.10217943 25.7264117,7.96050987 26.4996504,7.96050987 C27.2728891,7.96050987 31.2501692,8.10217943 33.6010894,10.9091753 C35.3589228,13.0076171 35.8581891,16.1558984 35.0828701,20.2651407 C34.999243,20.7091211 35.2083108,21.1399039 35.6254061,21.3217853 C35.722555,21.3725141 36.5513371,21.8676359 35.8088865,23.7111962 C34.908543,25.9432652 34.2368218,25.8141747 33.9518239,25.7558159 C33.4829297,25.6619882 33.0132033,25.920994 32.8438688,26.3657993 C32.8080881,26.4590084 31.9734812,28.6677751 31.9734812,30.8000361 C31.9734812,34.9389733 34.667647,37.6975087 39.9808805,39.00058 C45.0592508,40.2459111 47.9687251,41.785717 48.3392223,46.0539509 M52.011742,30.199951 C51.4673337,29.6825581 51.2085473,29.0371058 51.3023678,28.4293908 C51.688259,25.9115081 52.1490402,22.0969467 52.1490402,18.2240266 C52.1490402,14.3030584 51.6780657,10.2276354 51.2826051,7.49858872 C51.161117,6.65867584 51.6863868,6.01631675 52.011742,5.70802562 C52.8097359,4.9483303 53.1548537,3.84673085 52.9349686,2.76245344 C52.6795106,1.4993878 51.6410367,0.493472013 50.3502253,0.259005787 C49.39101,0.0835169934 48.4114079,0.3330369 47.6683332,0.940545696 C47.3519232,1.1997577 46.7066215,1.61012515 45.9379595,1.46247535 C42.4934381,0.794958048 36.3141856,0 26.4299612,0 C16.6403893,0 10.4885964,0.781554086 7.05260418,1.43731715 C6.47553555,1.54475506 5.84937241,1.36761654 5.3349201,0.944257562 C4.58726882,0.329943678 3.60329817,0.0810424158 2.63326536,0.262305224 C1.37303403,0.497183879 0.345585601,1.48020982 0.0757737746,2.70780652 C-0.155552942,3.76053307 0.150039636,4.84831613 0.893114303,5.61790976 C1.20369954,5.93919241 1.70712639,6.60361649 1.5852222,7.44229208 C1.18580917,10.188867 0.710258023,14.289242 0.710258023,18.2240266 C0.710258023,22.1165371 1.17561581,25.9541945 1.56670774,28.4873371 C1.6944367,29.3169393 1.19995505,29.9727023 0.893738386,30.2900669 C0.150039636,31.0596605 -0.155552942,32.1472374 0.0757737746,33.1999639 C0.342257159,34.4110634 1.35181521,35.3903775 2.5883314,35.6370104 C3.68422091,35.8560105 4.80070516,35.5229736 5.57456792,34.7467811 C6.09796542,34.2211396 6.74846779,33.9759502 7.37088644,34.0825632 C9.5711946,34.4502442 12.9046292,34.934849 16.8367673,35.2759283 C15.8706871,35.9904626 14.5035295,36.6317906 12.5468217,37.1116524 C5.42957267,38.856642 2.65677249,41.63683 2.65677249,47.0268724 C2.65677249,47.5638557 3.09654288,48 3.63824681,48 L49.361054,48 C49.902966,48 50.3425283,47.5638557 50.3425283,47.0268724 C50.3425283,41.63683 47.5699362,38.856642 40.4524791,37.1116524 C38.485994,36.629316 37.1150919,35.9838637 36.1485956,35.2652051 C40.0844782,34.9189705 43.4183289,34.4304476 45.6163488,34.0609107 C46.2381433,33.9563598 46.8886457,34.2015492 47.4089228,34.7311088 C48.0267648,35.3600639 48.8684446,35.7027929 49.7456971,35.7027929 C49.9610057,35.7027929 50.1796427,35.681759 50.3968235,35.639485 C51.6614234,35.3936769 52.6813829,34.3920917 52.9343445,33.1479978 C53.1554778,32.0618644 52.81036,30.9596463 52.011742,30.199951" id="Fill-1"></path>
                    <path d="M24,19.0001098 C24,18.4476661 23.5521739,18 23,18 C22.4476087,18 22,18.4476661 22,19.0001098 C22,19.5523339 22.4476087,20 23,20 C23.5521739,20 24,19.5523339 24,19.0001098" id="Fill-4"></path>
                    <path d="M29,19.0001098 C29,19.5523339 29.4476087,20 30,20 C30.5521739,20 31,19.5523339 31,19.0001098 C31,18.4476661 30.5521739,18 30,18 C29.4476087,18 29,18.4476661 29,19.0001098" id="Fill-6"></path>
                    <path d="M31.8603591,21.3807698 C31.5886143,21.0040232 31.0110078,20.8885577 30.5728441,21.1198278 C29.4779307,21.6968164 28.5841481,21.2103691 28.4786239,21.1489909 C28.0618824,20.8938138 27.4813006,20.974521 27.1796044,21.3290561 C26.8751312,21.6864737 26.9671674,22.1869938 27.3845039,22.4467489 C27.4374644,22.4796421 28.2921712,23 29.5090723,23 C30.1190104,23 30.8195963,22.8691052 31.5550925,22.4811681 C31.9950414,22.2493893 32.1321039,21.7568381 31.8603591,21.3807698" id="Fill-8"></path>
                    <path d="M23.5730315,21.1196248 C22.478262,21.6951495 21.5845968,21.2101758 21.4780948,21.1482824 C21.0623997,20.8946038 20.4818942,20.9737936 20.1798409,21.3293844 C19.875011,21.6863318 19.9670351,22.186906 20.3851102,22.4466891 C20.4374687,22.4800947 21.2926583,23 22.5093995,23 C23.1192575,23 23.8197514,22.869091 24.5551509,22.4811121 C24.995042,22.2493082 25.1320865,21.7567039 24.8603774,21.3805949 C24.5892633,21.0038077 24.0117327,20.8883297 23.5730315,21.1196248" id="Fill-10"></path>
                    <path d="M24.6150214,15.5536196 C24.5364814,15.5030909 22.6471567,14.3561904 20.4448618,15.519199 C20.0049581,15.7509869 19.8679097,16.2437268 20.1396266,16.6198098 C20.3163417,16.8649928 20.6227669,16.9999622 20.9365305,16.9999622 C21.1045189,16.9999622 21.2738957,16.9614722 21.4268108,16.8807618 C22.5216116,16.3052769 23.4155006,16.7900475 23.5214106,16.851428 C23.9375143,17.1055977 24.5182347,17.0260743 24.8202966,16.6708472 C25.1249368,16.3139244 25.03291,15.8133848 24.6150214,15.5536196" id="Fill-12"></path>
                    <path d="M27.9366107,17 C28.1048119,17 28.2742032,16.9613368 28.4271314,16.8807884 C29.5226211,16.304062 30.4157932,16.7895568 30.5213157,16.8521301 C30.9372566,17.1051368 31.5180268,17.0259451 31.8203129,16.6713626 C32.1249792,16.3138974 32.0327462,15.8133104 31.6154169,15.5535206 C31.53568,15.5040046 29.6481769,14.3558086 27.4448999,15.5190968 C27.0049586,15.7509066 26.8678984,16.2436931 27.1396385,16.6198116 C27.3163688,16.8650179 27.6228203,17 27.9366107,17" id="Fill-14"></path>
                </g>
            </g>
        </g>
    </g>
</svg>