<svg version="1" xmlns="http://www.w3.org/2000/svg" viewBox="0 0 36 36"><path d="M-.047 18.234l.008-1 4 .033-.008 1zM31.75 18.03l.007-1 4 .03-.008 1zM18.06 35.869l.03-4 1 .008-.03 4zM17.853 4.072l.032-4 1 .008-.032 4zM9.6 32.1l-.4.6c.2.1.4.3.6.4l.4-.6 1.4-2.3-.6-.4-1.4 2.3zM26.4 3l-.4.6-1.3 2.3.6.4L26.7 4l.4-.6.4-.7-.7-.4zM30.1 24.6l-.4.6 2.3 1.3.6.4c.1-.2.3-.4.4-.6l-.6-.4-2.3-1.3zM5.8 11.5l.4-.6-2.3-1.4-.6-.4c-.2.2-.3.4-.4.6l.6.4 2.3 1.4zM3.6 26l-.6.4c.1.2.3.4.4.6l.6-.3 2.3-1.3-.3-.7L3.6 26zM32.5 10.2l.7-.3.7-.4-.4-.7-.7.4-.7.4-2.3 1.3.4.6zM25.2 29.8l-.7.4 1.3 2.3.4.7c.2-.1.4-.3.6-.4l-.4-.7-1.2-2.3zM10.7 6.3l.7-.4-1.3-2.3-.4-.7c-.2.1-.4.3-.6.4l.4.7 1.2 2.3zM17.7 20.6c-1-.1-1.8-1-1.8-2s.8-1.9 1.8-2v-7h.7v7c.9.2 1.7 1 1.7 2s-.7 1.8-1.7 2v3.8h-.7v-3.8zm.3-.5c.9 0 1.6-.7 1.6-1.5s-.7-1.5-1.6-1.5-1.6.7-1.6 1.5.7 1.5 1.6 1.5z"/></svg>