<svg version="1" id="Layer_1" xmlns="http://www.w3.org/2000/svg" viewBox="0 0 36 36"><style>.st0{fill:none;stroke:#000;stroke-width:.75;stroke-miterlimit:10}</style><path transform="matrix(.00836 -1 1 .00836 -16.064 20.1)" d="M2 16h1v4H2z"/><path transform="matrix(.00781 -1 1 .00781 15.484 51.904)" d="M34 16h1v4h-1z"/><path transform="matrix(.00781 -1 1 .00781 -16.066 51.603)" d="M16 34h4v1h-4z"/><path transform="matrix(.00781 -1 1 .00781 15.728 20.057)" d="M16 2h4v1h-4z"/><path d="M9.6 32.1l-.4.6c.2.1.4.3.6.4l.4-.6 1.4-2.3-.6-.4-1.4 2.3zM26.4 3l-.4.6-1.3 2.3.6.4L26.7 4l.4-.6.4-.7-.7-.4zM30.1 24.6l-.4.6 2.3 1.3.6.4c.1-.2.3-.4.4-.6l-.6-.4-2.3-1.3zM5.8 11.5l.4-.6-2.3-1.4-.6-.4c-.2.2-.3.4-.4.6l.6.4 2.3 1.4zM3.6 26l-.6.4c.1.2.3.4.4.6l.6-.3 2.3-1.3-.3-.7L3.6 26zM32.5 10.2l.7-.3.7-.4-.4-.7-.7.4-.7.4-2.3 1.3.4.6zM25.2 29.8l-.7.4 1.3 2.3.4.7c.2-.1.4-.3.6-.4l-.4-.7-1.2-2.3zM10.7 6.3l.7-.4-1.3-2.3-.4-.7c-.2.1-.4.3-.6.4l.4.7 1.2 2.3z"/><path class="st0" d="M17 20l-3 3M17 17l-5-5"/><circle class="st0" cx="18" cy="19" r="2"/></svg>