<svg viewBox="0 0 53 48" version="1" xmlns="http://www.w3.org/2000/svg"><title>C7A1CD77-8DC9-4777-BFC5-23111D436912</title><g fill="#607EF5" fill-rule="evenodd"><path d="M51.01 32.764a1.274 1.274 0 0 1-.992.966 1.303 1.303 0 0 1-1.203-.356c-.977-.995-2.26-1.446-3.527-1.231-2.426.408-6.256.963-10.755 1.302-.485-.92-.596-1.847-.596-2.645 0-1.14.304-2.356.523-3.084 1.306-.124 2.328-1.19 3.171-3.283.913-2.266.262-3.7-.51-4.423.72-4.413.045-7.891-2.01-10.344-2.838-3.388-7.308-3.652-8.611-3.652-1.303 0-5.774.264-8.612 3.652-2.055 2.453-2.73 5.93-2.01 10.344-.771.723-1.423 2.157-.51 4.423.844 2.094 1.866 3.16 3.171 3.283.22.726.524 1.939.524 3.084 0 .801-.112 1.732-.602 2.654a120.283 120.283 0 0 1-10.764-1.29c-1.257-.21-2.54.233-3.519 1.215a1.31 1.31 0 0 1-1.202.35c-.477-.095-.88-.483-.982-.943a1.242 1.242 0 0 1 .317-1.15c.947-.98 1.382-2.235 1.196-3.443-.38-2.466-.834-6.199-.834-9.969 0-3.82.465-7.82.855-10.504.176-1.21-.268-2.466-1.218-3.448a1.243 1.243 0 0 1-.316-1.15c.102-.467.515-.857 1.002-.947.396-.074.785.02 1.086.267.968.797 2.189 1.126 3.341.906 3.353-.64 9.372-1.402 19.007-1.402 9.727 0 15.772.775 19.131 1.426 1.139.218 2.365-.12 3.357-.93.3-.245.683-.34 1.079-.269.499.09.916.49 1.013.973a1.23 1.23 0 0 1-.358 1.157c-1.014.964-1.492 2.23-1.312 3.472.386 2.666.846 6.643.846 10.449 0 3.751-.449 7.46-.824 9.913-.191 1.241.279 2.505 1.29 3.467.317.3.447.723.358 1.16m-2.67 13.29H4.66c.37-4.268 3.28-5.808 8.358-7.053 5.314-1.303 8.008-4.062 8.008-8.201 0-2.132-.835-4.341-.87-4.434a.981.981 0 0 0-1.109-.61c-.286.058-.957.187-1.856-2.045-.743-1.843.086-2.338.156-2.377a.971.971 0 0 0 .57-1.069c-.776-4.11-.277-7.257 1.481-9.356 2.351-2.807 6.328-2.948 7.102-2.948.773 0 4.75.141 7.101 2.948 1.758 2.099 2.257 5.247 1.482 9.356-.084.444.125.875.542 1.057.098.05.926.546.184 2.39-.9 2.231-1.572 2.102-1.857 2.044a.98.98 0 0 0-1.108.61c-.036.093-.87 2.302-.87 4.434 0 4.139 2.694 6.898 8.007 8.2 5.078 1.246 7.988 2.786 8.358 7.054M52.012 30.2c-.545-.517-.803-1.163-.71-1.77.386-2.518.847-6.333.847-10.206 0-3.92-.47-7.996-.866-10.725-.122-.84.403-1.483.729-1.791a3.173 3.173 0 0 0 .923-2.946C52.68 1.5 51.641.493 50.35.26a3.295 3.295 0 0 0-2.682.682c-.316.259-.961.67-1.73.521C42.493.795 36.314 0 26.43 0 16.64 0 10.489.782 7.053 1.437c-.577.108-1.204-.07-1.718-.493A3.289 3.289 0 0 0 2.633.262C1.373.497.346 1.48.076 2.708a3.192 3.192 0 0 0 .817 2.91c.31.321.814.986.692 1.824C1.185 10.19.71 14.29.71 18.224c0 3.893.466 7.73.857 10.263.127.83-.367 1.486-.673 1.803a3.19 3.19 0 0 0-.818 2.91c.266 1.211 1.276 2.19 2.512 2.437a3.291 3.291 0 0 0 2.987-.89c.523-.526 1.173-.771 1.796-.664 2.2.367 5.534.852 9.466 1.193-.966.714-2.333 1.356-4.29 1.836-7.117 1.745-9.89 4.525-9.89 9.915 0 .537.44.973.981.973h45.723a.978.978 0 0 0 .982-.973c0-5.39-2.773-8.17-9.89-9.915-1.967-.483-3.338-1.128-4.304-1.847 3.935-.346 7.27-.835 9.467-1.204.622-.105 1.273.14 1.793.67.618.63 1.46.972 2.337.972.215 0 .434-.021.65-.064 1.265-.245 2.285-1.247 2.538-2.491a3.171 3.171 0 0 0-.922-2.948"/><path d="M24 19a1 1 0 1 0-2 0 1 1 0 0 0 2 0M29 19a1 1 0 1 0 2 0 1 1 0 0 0-2 0M31.86 21.38c-.271-.376-.849-.491-1.287-.26-1.095.577-1.989.09-2.094.029-.417-.255-.998-.174-1.3.18-.304.357-.212.858.206 1.118.052.033.907.553 2.124.553.61 0 1.31-.13 2.046-.519.44-.232.577-.724.305-1.1M23.573 21.12c-1.095.575-1.988.09-2.095.028-.416-.253-.996-.174-1.298.181-.305.357-.213.858.205 1.118.052.033.908.553 2.124.553.61 0 1.31-.13 2.046-.519.44-.232.577-.724.305-1.1-.27-.377-.848-.493-1.287-.261M24.615 15.554c-.079-.05-1.968-1.198-4.17-.035-.44.232-.577.725-.305 1.1.176.246.483.381.797.381.168 0 .337-.039.49-.12 1.095-.575 1.989-.09 2.094-.029.417.255.997.175 1.3-.18.304-.357.212-.858-.206-1.117M27.937 17c.168 0 .337-.039.49-.12 1.096-.576 1.989-.09 2.094-.028.416.253.997.174 1.3-.18.304-.358.212-.859-.206-1.118-.08-.05-1.967-1.198-4.17-.035-.44.232-.577.725-.305 1.1.176.246.483.381.797.381"/></g></svg>